PathFileType	4	(X/Y/Z)	Run_300 01
DataRate	CameraRate	NumFrames	NumMarkers	Units	OrigDataRate	OrigDataStartFrame	OrigNumFrames
100	100	7	42	mm	100	82	128
Frame#	Time	LASI			RASI			LPSI			RPSI			RTH1			RTH2			RTH3			LTH1			LTH2			LTH3			RTB1			RTB2			RTB3			LTB1			LTB2			LTB3			RCAL			RTOE			RMT5			LCAL			LTOE			LACR			RACR			CLAV			C7			RUA1			RUA2			RUA3			RLEL			RMEL			LUA1			LUA2			LUA3			LLEL			LMEL			RFAsuperior			RFAradius			RFAulna			LFAsuperior			LFAradius			LFAulna			LMT5			
		X1	Y1	Z1	X2	Y2	Z2	X3	Y3	Z3	X4	Y4	Z4	X5	Y5	Z5	X6	Y6	Z6	X7	Y7	Z7	X8	Y8	Z8	X9	Y9	Z9	X10	Y10	Z10	X11	Y11	Z11	X12	Y12	Z12	X13	Y13	Z13	X14	Y14	Z14	X15	Y15	Z15	X16	Y16	Z16	X17	Y17	Z17	X18	Y18	Z18	X19	Y19	Z19	X20	Y20	Z20	X21	Y21	Z21	X22	Y22	Z22	X23	Y23	Z23	X24	Y24	Z24	X25	Y25	Z25	X26	Y26	Z26	X27	Y27	Z27	X28	Y28	Z28	X29	Y29	Z29	X30	Y30	Z30	X31	Y31	Z31	X32	Y32	Z32	X33	Y33	Z33	X34	Y34	Z34	X35	Y35	Z35	X36	Y36	Z36	X37	Y37	Z37	X38	Y38	Z38	X39	Y39	Z39	X40	Y40	Z40	X41	Y41	Z41	X42	Y42	Z42	

76	1.18	739.563578	974.914098	-438.118242	734.304976	983.589536	-188.951995	552.7211129999999	1052.610142	-366.299215	547.891848	1052.779079	-280.747599	691.795056	856.283897	-130.815287	784.669804	737.754551	-149.616162	745.3240479999999	617.976976	-175.030577	685.752979	857.911819	-505.986178	748.5442860000001	741.149176	-486.801571	670.928222	607.377371	-493.974712	818.8877	383.134688	-250.891503	750.275616	290.292116	-210.562685	753.512471	195.487628	-280.573774	595.127378	427.493612	-435.283854	508.038987	474.569919	-501.116471	390.997029	415.302313	-427.12386	596.220942	83.467866	-317.717912	833.8428740000001	68.941323	-287.845707	789.371612	51.900424	-200.994468	246.164106	525.391815	-398.754416	228.146833	294.95336	-424.823551	729.042331	1511.770927	-460.127184	679.8061740000001	1485.297963	-121.750366	781.3113049999999	1453.867437	-257.285567	645.101082	1531.878451	-310.727196	605.086924	1382.838731	-46.918911	525.053032	1318.101015	-78.027473	549.618416	1276.894683	-19.662434	513.597112	1188.595057	5.771843	489.611465	1173.192646	-69.693538	697.083854	1414.085477	-565.952172	625.977302	1337.366644	-572.704744	683.7892869999999	1303.699151	-619.247645	687.9277	1219.625572	-655.079754	617.837547	1194.060497	-623.693049	552.581187	1117.215899	15.32427	713.989862	996.36703	-29.991085	656.335446	958.8949229999999	-10.333641	757.895658	1133.187953	-590.608217	819.6825250000001	1093.01462	-455.305162	798.062266	1044.521525	-487.482377	190.476375	335.47421	-497.214847	
77	1.19	737.198296	970.9493	-440.296293	732.938163	980.367506	-189.17389	548.658777	1051.385783	-365.9094	545.721224	1051.003922	-280.822565	686.877517	852.443361	-131.83284	778.298951	732.781591	-150.078245	736.626627	613.37293	-175.202907	685.6494279999999	856.399044	-505.872206	756.836949	742.832582	-485.886099	686.3711479999999	605.869381	-494.592127	801.785704	376.763076	-252.48987	730.241099	286.364684	-211.316218	727.397945	192.264794	-282.521518	616.004778	427.662055	-433.928382	530.304037	473.748207	-501.922322	412.783746	415.75331	-427.911337	566.002428	83.853572	-317.702335	803.979932	68.445465	-287.689634	758.846535	52.145417	-200.164387	265.762153	526.185955	-402.434995	251.578845	295.063676	-425.316228	728.606094	1508.20938	-459.30746	682.091049	1479.981574	-120.071795	781.978707	1449.195634	-256.87749	646.530251	1529.965648	-308.946842	610.736659	1374.946175	-45.843925	532.38383	1307.732131	-75.299212	558.606151	1268.326026	-16.782854	525.883286	1178.713598	9.795405000000001	499.481717	1162.366509	-64.67465799999999	692.377617	1411.797151	-565.313631	619.370005	1336.064136	-569.80378	674.5896	1302.322098	-619.4984490000001	677.027501	1218.11262	-655.98708	607.13372	1193.881988	-623.4695359999999	566.838036	1108.183995	18.383961	728.0164559999999	989.931186	-31.366943	671.80904	951.383003	-9.297651	745.265028	1126.809101	-595.924521	808.835406	1080.54366	-464.909152	784.725265	1033.339501	-497.045277	214.966052	334.080055	-499.263886	
78	1.2	734.808015	968.588131	-442.593944	731.10019	977.653609	-189.86588	544.906923	1050.728314	-365.223824	544.121637	1049.982269	-280.814088	682.38578	849.173548	-132.67797	770.984862	727.966067	-150.835873	725.729344	609.407013	-175.298014	683.712338	855.486337	-505.869275	764.693067	746.305529	-484.864953	701.560016	606.045266	-494.553089	782.6588400000001	370.968542	-253.655012	708.047604	282.956737	-212.225326	700.524281	189.747373	-284.541126	638.186426	429.263765	-433.175326	552.618001	473.143301	-502.17231	435.073897	415.286474	-428.095087	535.831676	84.238298	-317.875906	773.8380979999999	68.182568	-287.165943	728.215634	52.336082	-199.477284	284.821476	524.233912	-405.800929	277.209592	292.399802	-424.974676	728.10924	1506.13096	-458.696984	684.668035	1476.750766	-118.970105	782.566083	1445.999269	-256.937086	647.587081	1528.900046	-307.576883	615.020731	1370.190203	-44.957585	539.122088	1300.410774	-74.548579	566.6926989999999	1262.536538	-14.996223	537.6185840000001	1171.921198	12.873175	509.39883	1154.704052	-60.931237	687.672646	1411.450217	-564.908714	612.488778	1337.463485	-566.769832	664.510948	1303.610179	-620.032331	665.165425	1219.514302	-657.291221	595.697533	1196.33801	-623.34593	580.673054	1102.269538	20.421144	742.572336	987.50293	-33.579547	688.149359	947.438037	-9.593399	731.840197	1123.89973	-601.6111509999999	797.10385	1072.793573	-473.753171	770.571262	1025.374939	-507.191458	241.150473	329.353998	-500.660999	
79	1.21	732.256607	968.35478	-443.828574	728.744916	975.732942	-190.456898	542.083592	1050.861004	-364.764577	542.566074	1050.228705	-280.694652	678.345489	847.197464	-133.312617	762.514725	723.787189	-151.663572	712.853683	606.597366	-175.660211	681.004268	855.275208	-506.072379	771.6427650000001	751.683994	-484.144639	716.415993	608.6274989999999	-494.058904	762.154958	366.291692	-254.463671	684.466322	280.702559	-213.231674	673.774723	188.226704	-286.316144	661.739021	432.477755	-433.271114	574.620303	472.878234	-501.824172	457.513386	414.048984	-427.548374	506.127508	85.417917	-318.220414	743.704747	67.805217	-286.666028	697.782973	52.390108	-199.242934	303.164253	519.392978	-408.679303	304.919235	287.147717	-424.115143	727.180173	1505.800319	-458.419538	687.355775	1475.706886	-118.196475	783.134304	1444.449696	-257.36055	647.93128	1528.526358	-306.572433	618.574839	1368.192704	-44.071174	544.5714369999999	1295.97744	-74.31421	573.808484	1259.268249	-14.020368	548.24225	1167.881966	14.95616	519.113413	1149.971573	-58.559305	682.655927	1413.146021	-564.797774	605.322482	1341.363175	-564.219624	654.149823	1307.323881	-620.627422	652.478883	1223.746262	-659.056825	583.588605	1201.548728	-623.3924929999999	593.454667	1099.224072	21.216796	757.183623	989.384818	-36.738001	704.851035	947.3862329999999	-11.371921	717.656373	1124.369153	-607.540481	784.543659	1069.308423	-481.870526	755.619298	1020.622248	-517.788157	268.848554	321.522725	-501.363796	
80	1.22	729.533308	970.668716	-443.577613	726.291389	975.084387	-190.693356	540.098137	1052.315305	-364.59744	540.897369	1051.94136	-280.515375	674.09193	846.613085	-134.022951	752.630738	720.677055	-152.449454	698.521398	605.053048	-176.376354	678.81349	856.4561189999999	-506.379261	777.56651	759.031668	-483.98598	730.885936	614.251025	-493.437443	740.4187470000001	362.997669	-254.962431	660.087706	279.814295	-214.160932	647.204415	187.699478	-287.643584	685.599926	437.358247	-433.220285	596.094392	473.237821	-500.857806	480.16213	412.103263	-426.494599	476.702299	87.647468	-318.413963	713.593354	67.29254899999999	-286.375542	667.494052	52.36316	-199.356507	320.69804	511.547762	-410.918374	334.555938	279.566357	-422.925797	725.629402	1507.288588	-458.465397	690.047457	1476.638355	-117.704797	783.681187	1444.731785	-258.156462	647.762239	1529.155059	-305.872848	622.363748	1368.363795	-43.292906	548.774396	1294.346212	-73.310362	580.244266	1258.2338	-13.536004	557.7184590000001	1166.188825	16.170175	528.348974	1147.764442	-57.32454	677.039621	1416.897268	-564.921298	597.864655	1347.351135	-562.5598210000001	643.9804820000001	1313.119186	-621.309649	639.302449	1230.346788	-661.225773	570.968519	1209.326775	-623.718422	605.152194	1098.7399	20.805753	771.439204	995.05447	-41.225365	721.410969	951.105136	-14.579534	702.791248	1127.762442	-613.373163	771.258687	1068.988427	-489.579703	739.993738	1019.201956	-527.972301	298.058465	310.861711	-501.309438	
81	1.23	726.890057	975.273273	-442.326591	724.240254	975.8980319999999	-190.677578	538.514001	1055.316208	-364.503481	539.552784	1054.83754	-280.401872	669.074673	847.2060300000001	-134.8707	741.468506	718.782646	-153.110369	683.213939	604.678904	-177.400957	677.983493	859.630614	-506.670947	782.666253	768.141835	-484.305365	744.609917	622.621642	-492.709487	717.3944310000001	361.13163	-255.085998	635.094111	280.202118	-214.911049	620.373997	188.096192	-288.346573	708.050349	443.658649	-431.451182	616.824171	474.446908	-499.336592	503.282473	409.369833	-425.298531	447.249209	90.850765	-318.14288	683.464221	66.877799	-286.196349	637.195869	52.327296	-199.538293	337.496316	500.622286	-412.353282	365.976008	269.947555	-421.348531	723.496672	1510.460368	-458.750747	692.710139	1479.186133	-117.596799	784.203749	1446.884421	-259.38083	647.5385680000001	1531.180957	-305.387849	626.982482	1370.212739	-42.75401	552.494399	1295.470501	-71.311482	586.389736	1259.150036	-13.291281	566.297534	1166.552799	16.721176	536.771577	1147.781301	-56.818196	670.726342	1422.576062	-565.149175	590.220908	1355.056995	-561.769004	634.10153	1320.742111	-622.267703	625.9680090000001	1238.832619	-663.580567	558.02651	1219.297353	-624.347402	616.07526	1100.640485	19.473518	785.041885	1003.64816	-47.261165	737.416507	958.114112	-18.995997	687.534389	1133.674605	-618.723415	757.586518	1070.943188	-496.966273	724.063409	1021.570546	-536.599651	328.850466	297.759288	-500.470245	
82	1.24	724.803594	981.3610660000001	-440.896721	722.725813	977.9808389999999	-190.581401	537.28743	1059.63027	-364.344978	538.900153	1058.597303	-280.352796	663.320956	848.829615	-135.720068	729.685356	718.01696	-153.660796	667.193212	605.547234	-178.710214	678.63404	864.9454919999999	-506.933645	787.284324	778.631895	-484.666915	757.060715	632.723394	-491.638903	693.309388	360.709732	-254.934826	609.542158	281.824105	-215.504505	593.006446	189.485129	-288.199734	728.158876	450.89121	-427.64774	636.5310950000001	476.391012	-497.402618	526.892847	405.650956	-424.015767	417.818115	95.090062	-317.36586	653.350849	66.7414	-285.901257	606.843493	52.322782	-199.579313	353.885969	486.597934	-412.806476	399.118489	258.609562	-419.209118	720.970054	1515.077208	-459.188102	695.348136	1483.041181	-117.935781	784.715477	1450.7318	-261.037618	647.546471	1534.753194	-305.043916	632.372621	1373.484713	-42.40762	556.631797	1298.976423	-68.877871	592.576599	1261.729991	-13.05524	574.201566	1168.748947	16.795338	544.095178	1149.826398	-56.666931	663.873743	1429.949817	-565.3394060000001	582.586996	1364.229701	-561.500839	624.342583	1330.009358	-623.52967	612.672135	1248.888678	-665.803915	544.988694	1230.989865	-625.0928699999999	626.4485550000001	1104.754503	17.58318	797.716381	1014.555538	-54.444766	752.5249710000001	967.746885	-24.318417	672.362963	1141.882504	-623.31403	744.024906	1074.942468	-503.793178	708.370825	1027.887828	-543.100424	361.211489	282.721173	-498.882447	
